<?xml version="1.0" encoding="UTF-8" standalone="no"?><!-- Generator: Gravit.io --><svg xmlns="http://www.w3.org/2000/svg" xmlns:xlink="http://www.w3.org/1999/xlink" style="isolation:isolate" viewBox="0 0 600 600" width="600pt" height="600pt"><defs><clipPath id="_clipPath_O4WUwvELnAelqXh4tBwy0okUNIHJJAga"><rect width="600" height="600"/></clipPath></defs><g clip-path="url(#_clipPath_O4WUwvELnAelqXh4tBwy0okUNIHJJAga)"><rect width="600" height="600" style="fill:rgb(0,0,0)" fill-opacity="0"/><circle vector-effect="non-scaling-stroke" cx="291.39145463357113" cy="293.7845608403169" r="241.36676586933055" fill="rgb(57,57,57)"/><path d=" M 291.391 494.924 C 180.38 494.924 90.252 404.796 90.252 293.785 C 90.252 182.773 180.38 92.646 291.391 92.646 C 402.403 92.646 492.53 182.773 492.53 293.785 C 492.53 404.796 402.403 494.924 291.391 494.924 Z " fill="rgb(130,176,73)"/><clipPath id="_clipPath_2jHpQNcVs4lEM0agpwtqWro5euryweP1"><path d=" M 291.391 494.924 C 180.38 494.924 90.252 404.796 90.252 293.785 C 90.252 182.773 180.38 92.646 291.391 92.646 C 402.403 92.646 492.53 182.773 492.53 293.785 C 492.53 404.796 402.403 494.924 291.391 494.924 Z " fill="rgb(130,176,73)"/></clipPath><g clip-path="url(#_clipPath_2jHpQNcVs4lEM0agpwtqWro5euryweP1)"><path d=" M 327.894 537.386 C 209.893 537.386 114.091 441.584 114.091 323.583 C 114.091 205.582 209.893 109.78 327.894 109.78 C 445.896 109.78 541.698 205.582 541.698 323.583 C 541.698 441.584 445.896 537.386 327.894 537.386 Z " fill="rgb(178,203,59)"/></g><path d=" M 396.495 346.889 L 396.495 346.889 Q 399.948 346.889 401.939 350.031 L 401.939 350.031 L 401.939 350.031 Q 403.931 353.174 403.931 358.674 L 403.931 358.674 L 403.931 358.674 Q 403.931 368.888 398.885 374.912 L 398.885 374.912 L 398.885 374.912 Q 385.873 390.102 373.127 398.351 L 373.127 398.351 L 373.127 398.351 Q 360.38 406.601 344.713 406.601 L 344.713 406.601 L 344.713 406.601 Q 321.078 406.601 308.996 392.721 L 308.996 392.721 L 308.996 392.721 Q 296.913 378.84 289.477 352.127 L 289.477 352.127 L 280.449 319.651 L 217.778 396.125 L 217.778 396.125 Q 212.467 402.673 206.89 404.637 L 206.89 404.637 L 206.89 404.637 Q 201.314 406.601 193.878 406.601 L 193.878 406.601 L 193.878 406.601 Q 186.443 406.601 181.53 403.851 L 181.53 403.851 L 181.53 403.851 Q 176.617 401.101 176.617 396.125 L 176.617 396.125 L 176.617 396.125 Q 176.617 389.578 184.318 381.197 L 184.318 381.197 L 270.358 284.557 L 261.86 253.915 L 261.86 253.915 Q 255.752 232.44 248.317 223.797 L 248.317 223.797 L 248.317 223.797 Q 240.881 215.154 231.321 215.154 L 231.321 215.154 L 231.321 215.154 Q 217.247 215.154 198.392 235.32 L 198.392 235.32 L 198.392 235.32 Q 195.206 238.725 191.223 238.725 L 191.223 238.725 L 191.223 238.725 Q 187.239 238.725 184.451 235.713 L 184.451 235.713 L 184.451 235.713 Q 181.663 232.701 181.663 227.987 L 181.663 227.987 L 181.663 227.987 Q 181.663 220.13 189.364 210.964 L 189.364 210.964 L 189.364 210.964 Q 200.251 198.393 212.998 190.798 L 212.998 190.798 L 212.998 190.798 Q 225.744 183.203 243.271 183.203 L 243.271 183.203 L 243.271 183.203 Q 262.125 183.203 274.341 194.857 L 274.341 194.857 L 274.341 194.857 Q 286.556 206.512 293.726 232.44 L 293.726 232.44 L 299.037 250.772 L 345.509 194.988 L 345.509 194.988 Q 350.82 188.703 356.397 186.084 L 356.397 186.084 L 356.397 186.084 Q 361.973 183.465 369.94 183.465 L 369.94 183.465 L 369.94 183.465 Q 377.11 183.465 381.226 186.084 L 381.226 186.084 L 381.226 186.084 Q 385.342 188.703 385.342 193.417 L 385.342 193.417 L 385.342 193.417 Q 385.342 199.702 378.172 207.821 L 378.172 207.821 L 309.128 286.39 L 324.265 339.817 L 324.265 339.817 Q 328.248 353.698 331.435 361.031 L 331.435 361.031 L 331.435 361.031 Q 334.621 368.364 339.269 371.9 L 339.269 371.9 L 339.269 371.9 Q 343.916 375.435 351.617 375.435 L 351.617 375.435 L 351.617 375.435 Q 359.849 375.435 368.745 369.674 L 368.745 369.674 L 368.745 369.674 Q 377.641 363.912 389.325 350.555 L 389.325 350.555 L 389.325 350.555 Q 392.512 346.889 396.495 346.889 L 396.495 346.889 Z " fill="rgb(202,234,163)"/><path d="M 490.356 400.798 L 556.14 453.798 C 563.92 460.066 565.148 471.472 558.88 479.252 L 531.118 513.71 C 524.85 521.49 513.444 522.718 505.664 516.45 L 439.879 463.45 C 432.099 457.182 430.872 445.776 437.14 437.996 L 464.902 403.537 C 471.17 395.757 482.576 394.53 490.356 400.798 Z" style="stroke:none;fill:#393939;stroke-miterlimit:10;"/></g></svg>